# xmcd CD database file
#
# Track frame offsets:
#	150
#	29640
#	51080
#	69392
#	92795
#	114155
#	132612
#	161920
#
# Disc length: 2470 seconds
#
# Revision: 0
# Processed by: cddbd v1.5PL3 Copyright (c) Steve Scherf et al.
# Submitted via: CDex 1.51
#
DISCID=6f09a408
DTITLE=甲斐バンド - THE BIG GIG [CD2]
DYEAR=1983
DGENRE=Rock
TTITLE0=ナイト・ウェイブ
TTITLE1=東京の一夜
TTITLE2=シーズン 
TTITLE3=MIDNIGHT
TTITLE4=ポップコーンをほおばって 
TTITLE5=漂泊者（アウトロー)
TTITLE6=観覧車`82
TTITLE7=破れたハートを売り物に
EXTD=YEAR: 1983
EXTT0=
EXTT1=
EXTT2=
EXTT3=
EXTT4=
EXTT5=
EXTT6=
EXTT7=
PLAYORDER=
